<?xml version="1.0" standalone="no"?>
<!DOCTYPE svg PUBLIC "-//W3C//DTD SVG 20010904//EN"
 "http://www.w3.org/TR/2001/REC-SVG-20010904/DTD/svg10.dtd">
<svg version="1.0" xmlns="http://www.w3.org/2000/svg"
 width="150.000000pt" height="150.000000pt" viewBox="0 0 150.000000 150.000000"
 preserveAspectRatio="xMidYMid meet">
<metadata>
Created by potrace 1.14, written by Peter Selinger 2001-2017
</metadata>
<g transform="translate(0.000000,150.000000) scale(0.100000,-0.100000)"
fill="#000000" stroke="none">
<path d="M756 1270 c7 -8 14 -24 17 -35 4 -19 5 -19 6 1 0 12 -7 28 -16 35
-16 12 -17 12 -7 -1z"/>
<path d="M732 1245 c0 -16 2 -22 5 -12 2 9 2 23 0 30 -3 6 -5 -1 -5 -18z"/>
<path d="M797 1263 c-10 -10 -8 -23 4 -23 5 0 8 4 5 9 -4 5 0 12 6 14 7 3 8 6
2 6 -6 1 -14 -2 -17 -6z"/>
<path d="M664 1245 c-3 -8 -4 -20 -1 -27 3 -7 6 -2 6 11 1 24 1 24 17 5 14
-18 15 -18 4 4 -13 26 -19 28 -26 7z"/>
<path d="M862 1243 c4 -21 30 -24 34 -5 1 7 0 8 -3 2 -8 -16 -26 -12 -19 5 3
8 1 15 -5 15 -6 0 -9 -8 -7 -17z"/>
<path d="M597 1229 c4 -13 8 -18 11 -10 2 7 -1 18 -6 23 -8 8 -9 4 -5 -13z"/>
<path d="M627 1236 c-4 -10 -3 -15 3 -11 6 3 10 1 10 -6 0 -7 3 -10 6 -6 3 3
2 13 -4 22 -8 16 -9 16 -15 1z"/>
<path d="M904 1218 c-10 -12 -13 -18 -6 -14 7 4 19 2 27 -4 9 -8 15 -8 15 -2
0 6 -6 13 -12 15 -10 4 -9 8 2 16 8 6 10 11 4 11 -6 0 -19 -10 -30 -22z"/>
<path d="M790 1220 c0 -5 5 -10 11 -10 5 0 7 5 4 10 -3 6 -8 10 -11 10 -2 0
-4 -4 -4 -10z"/>
<path d="M970 1226 c0 -2 7 -7 16 -10 8 -3 12 -2 9 4 -6 10 -25 14 -25 6z"/>
<path d="M507 1213 c-3 -5 5 -8 18 -8 13 0 21 3 18 8 -2 4 -10 7 -18 7 -8 0
-16 -3 -18 -7z"/>
<path d="M546 1182 c-20 -27 -20 -27 0 -9 12 9 24 14 28 10 4 -4 4 0 0 10 -8
21 -5 22 -28 -11z"/>
<path d="M460 1185 c-10 -12 -9 -16 4 -21 9 -4 20 -4 23 0 4 3 -2 6 -12 6 -14
0 -15 3 -5 15 7 8 10 15 7 15 -2 0 -10 -7 -17 -15z"/>
<path d="M979 1184 c12 -25 55 -27 57 -4 0 9 -1 10 -3 3 -3 -7 -9 -13 -14 -13
-6 0 -7 6 -3 13 5 9 4 9 -6 0 -11 -10 -16 -9 -27 5 -13 15 -13 15 -4 -4z"/>
<path d="M500 1181 c0 -6 4 -13 10 -16 6 -3 7 1 4 9 -7 18 -14 21 -14 7z"/>
<path d="M1053 1160 c-11 -16 -10 -18 2 -14 8 4 15 12 15 20 0 19 -3 18 -17
-6z"/>
<path d="M398 1144 c-4 -6 1 -19 12 -29 16 -15 23 -16 33 -6 9 10 8 11 -7 5
-15 -6 -17 -4 -11 6 5 8 4 11 -3 6 -6 -3 -12 2 -14 11 -2 12 -6 14 -10 7z"/>
<path d="M1090 1140 c0 -5 -8 -7 -17 -4 -12 4 -14 3 -6 -3 7 -5 16 -20 22 -33
8 -20 10 -21 10 -6 1 15 4 16 16 6 10 -9 15 -9 15 -1 0 6 -5 11 -11 11 -5 0
-7 6 -3 13 5 8 2 8 -9 -2 -19 -15 -23 -1 -5 17 9 9 9 12 0 12 -7 0 -12 -4 -12
-10z"/>
<path d="M361 1107 c-8 -11 -6 -18 8 -31 11 -10 25 -15 30 -11 13 8 14 32 2
39 -5 4 -7 -3 -4 -14 6 -23 -9 -27 -26 -7 -8 10 -7 17 1 25 7 7 9 12 6 12 -3
0 -11 -6 -17 -13z"/>
<path d="M1139 1083 c-12 -14 -12 -16 0 -8 11 6 13 2 9 -19 -5 -26 -5 -26 13
-10 20 18 25 29 9 19 -9 -6 -14 8 -11 28 2 12 -6 8 -20 -10z"/>
<path d="M1193 1055 c4 -5 -1 -17 -10 -28 -18 -19 -17 -19 5 -6 25 16 28 25
10 35 -7 4 -10 3 -5 -1z"/>
<path d="M303 1035 c-3 -9 -3 -19 1 -22 3 -4 6 1 6 10 0 8 6 18 13 20 9 4 9 6
-1 6 -7 1 -15 -6 -19 -14z"/>
<path d="M345 1025 c0 -13 3 -21 8 -18 4 2 7 10 7 18 0 8 -3 16 -7 18 -5 3 -8
-5 -8 -18z"/>
<path d="M805 1001 c-15 -15 -6 -141 10 -141 9 0 14 19 17 65 4 84 -2 101 -27
76z"/>
<path d="M1211 1007 c2 -1 13 -9 24 -17 19 -14 19 -14 6 3 -7 9 -18 17 -24 17
-6 0 -8 -1 -6 -3z"/>
<path d="M280 983 c0 -5 8 -17 17 -28 12 -16 14 -16 10 -3 -4 11 0 21 11 27
14 9 13 10 -10 11 -16 0 -28 -3 -28 -7z"/>
<path d="M1190 972 c0 -18 29 -27 43 -13 9 9 8 11 -7 5 -11 -4 -21 -2 -27 7
-6 10 -9 11 -9 1z"/>
<path d="M673 915 c-1 -41 3 -55 13 -55 10 0 14 15 14 55 0 38 -4 55 -13 55
-9 0 -13 -18 -14 -55z"/>
<path d="M250 951 c0 -10 19 -25 25 -20 1 2 -3 10 -11 17 -8 7 -14 8 -14 3z"/>
<path d="M760 905 c0 -33 4 -45 15 -45 11 0 15 12 15 45 0 33 -4 45 -15 45
-11 0 -15 -12 -15 -45z"/>
<path d="M725 932 c-15 -11 -14 -72 2 -72 7 0 13 3 14 8 0 4 2 14 3 22 5 23
-8 50 -19 42z"/>
<path d="M1252 931 c-11 -6 -9 -9 6 -13 15 -4 19 -2 15 8 -6 16 -4 16 -21 5z"/>
<path d="M1221 904 c0 -11 3 -14 6 -6 3 7 2 16 -1 19 -3 4 -6 -2 -5 -13z"/>
<path d="M230 896 c0 -23 16 -27 31 -8 13 16 13 16 -5 2 -18 -14 -19 -13 -13
3 3 9 2 17 -3 17 -6 0 -10 -6 -10 -14z"/>
<path d="M1255 859 c-17 -8 -15 -8 8 -4 20 4 27 1 27 -10 0 -9 -4 -14 -8 -11
-4 2 -14 0 -22 -5 -13 -8 -12 -11 3 -23 20 -16 22 -32 5 -39 -8 -4 -7 -6 3 -6
10 -1 19 9 21 24 4 20 1 25 -15 25 -11 0 -17 3 -13 8 4 4 13 7 19 7 15 0 16
37 2 41 -5 1 -19 -2 -30 -7z"/>
<path d="M232 845 c-11 -12 -10 -15 3 -15 8 0 15 7 15 15 0 18 -2 18 -18 0z"/>
<path d="M339 793 c-3 -130 0 -176 10 -186 16 -16 29 1 33 43 2 27 8 35 23 36
39 2 65 -14 65 -40 0 -29 36 -54 52 -38 6 6 7 16 2 24 -23 36 -31 75 -17 94
20 27 16 58 -10 82 -19 18 -35 22 -90 22 l-67 0 -1 -37z m126 -38 c0 -28 -3
-30 -42 -33 l-43 -3 0 36 0 36 43 -3 c39 -3 42 -5 42 -33z"/>
<path d="M567 823 c-12 -11 -8 -211 4 -219 18 -11 31 12 32 54 l1 39 45 -1 46
-1 6 -42 c6 -49 10 -56 31 -48 21 8 20 216 -1 223 -18 6 -31 -16 -31 -55 0
-33 0 -33 -49 -33 l-49 0 2 33 c2 43 -18 70 -37 50z"/>
<path d="M799 823 c-7 -47 -2 -150 8 -174 22 -53 94 -65 137 -23 24 25 26 33
26 116 0 67 -3 89 -12 86 -9 -3 -15 -35 -18 -92 -5 -91 -13 -106 -57 -106 -25
0 -52 24 -54 48 -1 9 -2 46 -3 81 -1 42 -6 66 -14 69 -6 2 -13 0 -13 -5z"/>
<path d="M1029 823 c-3 -24 -5 -83 -2 -83 2 0 21 11 44 25 27 17 45 23 55 17
14 -8 14 -10 0 -21 -9 -8 -16 -11 -16 -7 0 11 -74 -31 -94 -53 -16 -17 -17
-23 -5 -37 7 -9 15 -25 16 -37 8 -48 23 -35 26 22 1 42 5 45 54 41 30 -2 73
42 73 75 0 43 -32 65 -95 65 -30 0 -55 -3 -56 -7z"/>
<path d="M247 809 c7 -7 15 -10 18 -7 3 3 -2 9 -12 12 -14 6 -15 5 -6 -5z"/>
<path d="M217 778 c2 -5 10 -8 18 -8 8 0 16 3 18 8 3 4 -5 7 -18 7 -13 0 -21
-3 -18 -7z"/>
<path d="M1267 673 c-3 -5 5 -8 18 -8 13 0 21 3 18 8 -2 4 -10 7 -18 7 -8 0
-16 -3 -18 -7z"/>
<path d="M210 646 c0 -2 7 -6 15 -10 8 -3 15 -1 15 4 0 6 -7 10 -15 10 -8 0
-15 -2 -15 -4z"/>
<path d="M1260 636 c7 -7 13 -7 20 0 6 6 3 10 -10 10 -13 0 -16 -4 -10 -10z"/>
<path d="M225 609 c-3 -4 2 -6 10 -5 21 3 28 13 10 13 -9 0 -18 -4 -20 -8z"/>
<path d="M1246 603 c-6 -14 -5 -15 5 -6 7 7 10 15 7 18 -3 3 -9 -2 -12 -12z"/>
<path d="M1270 603 c0 -14 2 -15 9 -4 5 8 14 10 21 6 9 -5 11 -4 6 3 -11 18
-36 14 -36 -5z"/>
<path d="M243 593 c-16 -3 -23 -11 -22 -26 1 -17 2 -18 6 -4 2 9 11 17 18 17
8 0 17 5 20 10 3 6 5 9 3 9 -2 -1 -13 -4 -25 -6z"/>
<path d="M245 560 c-3 -5 -1 -10 4 -10 6 0 11 5 11 10 0 6 -2 10 -4 10 -3 0
-8 -4 -11 -10z"/>
<path d="M1256 555 c-11 -8 -16 -15 -10 -15 5 0 18 7 28 15 11 8 16 15 10 15
-5 0 -18 -7 -28 -15z"/>
<path d="M291 517 c-1 -10 -4 -16 -8 -14 -5 3 -14 -1 -21 -9 -16 -18 -2 -18
22 -1 11 8 16 20 13 28 -4 10 -6 9 -6 -4z"/>
<path d="M1267 513 c-4 -3 -7 -11 -7 -17 0 -6 5 -5 12 2 6 6 9 14 7 17 -3 3
-9 2 -12 -2z"/>
<path d="M1228 480 c6 -9 10 -19 7 -22 -3 -3 1 -8 9 -11 9 -4 18 -1 22 6 4 7
4 9 0 5 -5 -4 -18 3 -30 16 -11 12 -15 15 -8 6z"/>
<path d="M1190 450 c-15 -13 -18 -18 -7 -14 9 3 25 0 35 -7 15 -13 16 -12 4 3
-8 9 -11 22 -7 28 9 14 3 12 -25 -10z"/>
<path d="M283 444 c-3 -8 -2 -19 3 -24 5 -5 9 1 9 16 0 28 -3 30 -12 8z"/>
<path d="M320 425 c-7 -9 -8 -15 -2 -15 5 0 12 7 16 15 3 8 4 15 2 15 -2 0 -9
-7 -16 -15z"/>
<path d="M1170 412 c0 -18 29 -27 43 -13 9 9 8 11 -7 5 -11 -4 -21 -2 -27 7
-6 10 -9 11 -9 1z"/>
<path d="M340 395 c-7 -8 -16 -12 -21 -9 -5 3 -6 -2 -3 -11 4 -9 7 -15 8 -13
1 2 10 13 20 26 11 12 17 22 14 22 -3 0 -11 -7 -18 -15z"/>
<path d="M1130 386 c0 -2 8 -10 18 -17 15 -13 16 -12 3 4 -13 16 -21 21 -21
13z"/>
<path d="M360 365 c-11 -13 -10 -14 4 -9 9 3 16 10 16 15 0 13 -6 11 -20 -6z"/>
<path d="M395 350 c-4 -6 -11 -8 -16 -5 -5 4 -9 -2 -9 -11 0 -16 1 -16 20 1
11 10 20 20 20 22 0 7 -9 3 -15 -7z"/>
<path d="M1164 349 c-3 -6 -15 -9 -25 -6 -11 3 -17 1 -13 -4 8 -14 30 -11 44
6 7 8 10 15 7 15 -3 0 -9 -5 -13 -11z"/>
<path d="M1085 340 c-4 -6 -1 -9 7 -8 7 2 12 -3 10 -10 -1 -8 2 -11 9 -6 9 5
10 2 5 -12 -5 -14 -4 -16 4 -8 9 9 8 17 -2 33 -14 23 -24 26 -33 11z"/>
<path d="M431 326 c-1 -16 -3 -17 -18 -5 -16 13 -17 12 -4 -3 12 -17 9 -23
-12 -19 -5 1 -5 -3 -2 -9 5 -8 13 -6 26 6 20 18 27 6 7 -14 -8 -8 -8 -12 -1
-12 17 0 23 27 13 52 -7 19 -9 20 -9 4z"/>
<path d="M1059 282 c7 -13 6 -23 -2 -32 -10 -12 -9 -12 5 -1 14 10 15 18 7 32
-5 10 -12 19 -15 19 -2 0 0 -8 5 -18z"/>
<path d="M463 272 c0 -12 4 -22 8 -22 9 0 21 31 14 38 -3 3 -5 -1 -5 -9 0 -12
-2 -11 -10 1 -7 12 -9 10 -7 -8z"/>
<path d="M497 265 c-4 -9 -3 -13 3 -10 14 9 12 -8 -2 -25 -7 -8 -3 -6 10 5 18
15 25 16 31 6 7 -10 9 -10 14 1 3 9 -3 14 -16 15 -11 1 -23 7 -27 13 -5 8 -9
6 -13 -5z"/>
<path d="M984 265 c-3 -8 -4 -20 -2 -27 3 -7 7 -1 10 15 6 29 1 36 -8 12z"/>
<path d="M1010 276 c0 -2 8 -10 18 -17 15 -13 16 -12 3 4 -13 16 -21 21 -21
13z"/>
<path d="M921 231 c-17 -17 -31 -35 -31 -41 0 -5 9 -1 20 10 11 11 20 24 20
29 0 14 28 21 34 8 3 -9 5 -9 5 0 2 25 -19 22 -48 -6z"/>
<path d="M570 240 c0 -5 5 -10 11 -10 5 0 7 5 4 10 -3 6 -8 10 -11 10 -2 0 -4
-4 -4 -10z"/>
<path d="M1010 230 c-13 -8 -12 -10 3 -10 9 0 17 5 17 10 0 12 -1 12 -20 0z"/>
<path d="M600 208 c0 -10 5 -18 12 -18 6 0 8 3 5 7 -4 3 0 11 9 17 13 10 13
12 -5 12 -14 0 -21 -7 -21 -18z"/>
<path d="M555 210 c-16 -7 -17 -9 -3 -9 9 -1 20 4 23 9 7 11 7 11 -20 0z"/>
<path d="M666 205 c-3 -8 -1 -15 4 -15 6 0 10 7 10 15 0 8 -2 15 -4 15 -2 0
-6 -7 -10 -15z"/>
<path d="M718 213 c7 -3 16 -2 19 1 4 3 -2 6 -13 5 -11 0 -14 -3 -6 -6z"/>
<path d="M752 206 c-29 -17 -38 -26 -25 -26 6 0 21 9 34 20 27 22 24 24 -9 6z"/>
<path d="M791 204 c0 -11 3 -14 6 -6 3 7 2 16 -1 19 -3 4 -6 -2 -5 -13z"/>
<path d="M837 204 c3 -8 10 -11 16 -7 6 4 8 0 4 -11 -4 -10 -3 -15 3 -11 17
10 11 32 -9 38 -14 3 -18 1 -14 -9z"/>
<path d="M630 191 c0 -6 4 -12 8 -15 5 -3 9 1 9 9 0 8 -4 15 -9 15 -4 0 -8 -4
-8 -9z"/>
<path d="M766 168 c3 -4 12 -8 20 -8 8 0 14 4 14 8 0 4 -9 8 -19 8 -11 0 -17
-4 -15 -8z"/>
<path d="M718 163 c7 -3 16 -2 19 1 4 3 -2 6 -13 5 -11 0 -14 -3 -6 -6z"/>
</g>
</svg>
